<?xml version="1.0" encoding="utf-8"?>
<svg version="1.1" id="Layer_1" 
	xmlns="http://www.w3.org/2000/svg" 
	xmlns:xlink="http://www.w3.org/1999/xlink" x="0px" y="0px" viewBox="0 0 78 48.4" style="enable-background:new 0 0 78 48.4;" xml:space="preserve">
	<style type="text/css">
	.st0{fill:#2FCF6E;}
	.st1{fill:#FFFFFF;}
	</style>
	<path class="st0" d="M57.1,48.4c7.2-5.3,11.9-14.2,11.9-24.2S64.3,5.3,57.1,0H78v48.4H57.1z M9.1,24.2c0,10,4.7,18.9,11.8,24.2H0V0
	h20.9C13.7,5.3,9.1,14.2,9.1,24.2z"/>
	<ellipse class="st0" cx="38.6" cy="24.2" rx="24.1" ry="24.2"/>
	<path class="st1" d="M46.8,22c0.6-1.1,0.8-2.3,0.5-3.6c-0.9-4-3.9-5.9-7.9-5l0,0l-1.1-4.8c0-0.2,0-0.1-0.1-0.3l-2.2,0.5
	c-0.2,0-0.3,0.1-0.3,0.1l1.2,5.2l-2.6,0.6l-1.1-4.8c0-0.2,0-0.1-0.1-0.3L30.5,10c0.1,0.3,0,0.1,0.1,0.3l1.1,4.9l-5.8,1.3
	c0,0,0,0.1,0.1,0.3l0.5,2.3l0.7-0.2c1.4-0.3,2.8,0.6,3.2,2l2.4,10.3c0.3,1.4,0.6,2.5-1.1,2.9c-0.1,0-1.1,0.3-1.5,0.4l0.5,2.2
	c0,0.1,0.1,0.4,0.1,0.4s0.3-0.1,0.4-0.1l5.4-1.2l1.2,5.2l2.6-0.6l-0.1-0.3L39,35.3l2.6-0.6l1.2,5.2l2.2-0.5l0.3-0.1l-1.2-5.2
	l1.3-0.3c4-0.9,5.9-3.9,5-8C50,23.9,48.6,22.5,46.8,22L46.8,22z M35.1,18.4l3.9-0.9c1.4-0.3,2.8,0.6,3.2,2c0.3,1.4-0.6,2.9-2,3.2
	l-3.9,0.9L35.1,18.4L35.1,18.4z M43.3,30.2l-5.2,1.2l-1.2-5.2l5.2-1.2c1.4-0.3,2.8,0.6,3.2,2C45.6,28.4,44.7,29.9,43.3,30.2
	L43.3,30.2z"/>
</svg>
