<?xml version="1.0" encoding="utf-8"?>
<svg version="1.1" id="Layer_1" 
	xmlns="http://www.w3.org/2000/svg" 
	xmlns:xlink="http://www.w3.org/1999/xlink" x="0px" y="0px" viewBox="0 0 48.2 48.4" style="enable-background:new 0 0 48.2 48.4;" xml:space="preserve">
	<style type="text/css">
	.st0{fill:#2FCF6E;}
	.st1{fill:#FFFFFF;}
	</style>
	<ellipse class="st0" cx="24.1" cy="24.2" rx="24.1" ry="24.2"/>
	<path class="st1" d="M32.3,22c0.6-1.1,0.8-2.3,0.5-3.6c-0.9-4-3.9-5.9-7.9-5l0,0l-1.1-4.8c0-0.2,0-0.1-0.1-0.3l-2.2,0.5
	c-0.2,0-0.3,0.1-0.3,0.1l1.2,5.2l-2.6,0.6l-1.1-4.8c0-0.2,0-0.1-0.1-0.3L16,10c0.1,0.3,0,0.1,0.1,0.3l1.1,4.9l-5.8,1.3
	c0,0,0,0.1,0.1,0.3l0.5,2.3l0.7-0.2c1.4-0.3,2.8,0.6,3.2,2l2.4,10.3c0.3,1.4,0.6,2.5-1.1,2.9c-0.1,0-1.1,0.3-1.5,0.4l0.5,2.2
	c0,0.1,0.1,0.4,0.1,0.4s0.3-0.1,0.4-0.1l5.4-1.2l1.2,5.2l2.6-0.6l-0.1-0.3l-1.3-4.8l2.6-0.6l1.2,5.2l2.2-0.5l0.3-0.1l-1.2-5.2
	l1.3-0.3c4-0.9,5.9-3.9,5-8C35.5,23.9,34.1,22.5,32.3,22L32.3,22z M20.6,18.4l3.9-0.9c1.4-0.3,2.8,0.6,3.2,2c0.3,1.4-0.6,2.9-2,3.2
	l-3.9,0.9L20.6,18.4L20.6,18.4z M28.8,30.2l-5.2,1.2l-1.2-5.2l5.2-1.2c1.4-0.3,2.8,0.6,3.2,2C31.1,28.4,30.2,29.9,28.8,30.2
	L28.8,30.2z"/>
</svg>
