<?xml version="1.0" encoding="utf-8"?>
<svg version="1.1" id="Layer_1" 
	xmlns="http://www.w3.org/2000/svg" 
	xmlns:xlink="http://www.w3.org/1999/xlink" x="0px" y="0px" viewBox="0 0 53.2 52.3" style="enable-background:new 0 0 53.2 52.3;" xml:space="preserve">
	<style type="text/css">
	.st0{fill:#F7931A;}
	.st1{fill:#FFFFFF;}
	</style>
	<g transform="translate(28.258 11)">
		<path class="st0" d="M24.1,21.5c-3.5,14-18,22.5-32.2,19.1C-22.3,37.1-31,22.9-27.5,8.9s18-22.6,32.2-19.1
		C19-6.7,27.7,7.5,24.1,21.5"/>
		<path class="st1" d="M7.6,17.1c1.1-0.8,1.9-1.9,2.2-3.3c1-4.4-1-7.6-5.4-8.6l0,0l1.3-5.3c0-0.2,0-0.1,0.1-0.4L3.4-1.1
		c-0.2,0-0.3-0.1-0.3-0.1L1.7,4.5l-2.8-0.6l1.2-5.2c0-0.2,0-0.1,0.1-0.4l-2.8-0.6C-2.7-2-2.6-2.1-2.7-2l-1.2,5.3l-6.3-1.5
		c0,0,0,0.2-0.1,0.4l-0.6,2.4l0.7,0.2c1.5,0.4,2.5,1.9,2.1,3.4l-2.6,11.2c-0.3,1.5-0.6,2.7-2.5,2.3c-0.1,0-1.2-0.3-1.7-0.4l-0.6,2.4
		c0,0.1-0.1,0.5-0.1,0.5s0.4,0.1,0.5,0.1l5.8,1.3l-1.3,5.6l2.8,0.6l0.1-0.3l1.2-5.2l2.8,0.6L-5,32.5l2.4,0.6l0.4,0.1l1.3-5.6
		l1.6,0.3c4.4,1,7.6-1,8.6-5.4C9.7,20.4,9,18.4,7.6,17.1L7.6,17.1z M-2.1,8.1l4.2,1c1.5,0.4,2.5,1.9,2.1,3.4S2.3,15,0.8,14.7l-4.2-1
		L-2.1,8.1L-2.1,8.1z M0.2,23.3l-5.5-1.2l1.3-5.6l5.6,1.3c1.5,0.4,2.5,1.9,2.1,3.4C3.3,22.7,1.8,23.7,0.2,23.3L0.2,23.3z"/>
	</g>
</svg>
